# Blender 4.5.4 LTS
# www.blender.org
mtllib rightelevator.mtl
g RightElevator_Cube.007
v -0.187133 -0.043223 -4.085598
v -0.187133 0.048777 -4.085598
v -0.187133 -0.043223 -4.253907
v -1.905849 -0.043223 -4.085598
v -1.905849 0.048777 -4.085598
v -1.905849 -0.043223 -4.253907
v -0.187133 0.048777 -4.085598
v -0.187133 -0.043223 -4.253907
v -1.905849 -0.043223 -4.253907
v -1.905849 0.048777 -4.085598
vn -0.0000 -0.0000 1.0000
vn -0.0000 -1.0000 -0.0000
vn -0.0000 0.8775 -0.4796
vn -0.0000 1.0000 -0.0000
vn 1.0000 -0.0000 -0.0000
vn -1.0000 -0.0000 -0.0000
vt 0.375000 0.750000
vt 0.625000 0.750000
vt 0.625000 1.000000
vt 0.375000 1.000000
vt 0.125000 0.500000
vt 0.375000 0.500000
vt 0.125000 0.750000
vt 0.625000 0.184699
vt 0.625000 0.565301
vt 0.375000 0.250000
vt 0.875000 0.750000
vt 0.375000 0.000000
vt 0.625000 0.000000
s 0
usemtl Head
f 4/1/1 1/4/1 2/3/1 5/2/1
f 3/5/2 1/7/2 4/1/2 6/6/2
f 7/8/3 8/10/3 9/6/3 10/9/3
f 10/9/4 5/2/4 2/11/4 7/11/4
f 1/12/5 3/10/5 8/10/5 7/8/5 2/13/5
f 3/10/4 6/6/4 9/6/4 8/10/4
f 6/6/6 4/1/6 5/2/6 10/9/6 9/6/6
